<?xml version="1.0" encoding="utf-8"?>
<!-- Generator: Adobe Illustrator 19.1.0, SVG Export Plug-In . SVG Version: 6.00 Build 0)  -->
<svg version="1.1" xmlns="http://www.w3.org/2000/svg" xmlns:xlink="http://www.w3.org/1999/xlink" x="0px" y="0px"
	 viewBox="0 0 35 34" style="enable-background:new 0 0 35 34;" xml:space="preserve">
<style type="text/css">
	.st0{display:none;}
	.st1{display:inline;fill:none;stroke:#FFFFFF;stroke-miterlimit:10;}
	.st2{display:inline;fill:#FFFFFF;}
	.st3{display:inline;}
	.st4{fill:none;stroke:#000000;stroke-miterlimit:10;}
	.st5{fill:none;stroke:#1F1A3A;stroke-miterlimit:10;}
	.st6{fill:#1F1A3A;}
	.st7{display:inline;fill:#1F1A3A;}
	.st8{fill:none;stroke:#FFFFFF;stroke-miterlimit:10;}
	.st9{fill:#FFFFFF;}
	.st10{display:inline;fill:none;stroke:#000000;stroke-miterlimit:10;}
	.st11{display:inline;fill:none;stroke:#1F1A3A;stroke-miterlimit:10;}
	.st12{fill:none;stroke:#000000;stroke-width:2;stroke-miterlimit:10;}
	.st13{display:inline;fill:none;stroke:#FFFFFF;stroke-width:2;stroke-miterlimit:10;}
	.st14{display:inline;fill:none;stroke:#1F1A3A;stroke-width:2;stroke-miterlimit:10;}
	.st15{fill:#5D5D5D;}
	.st16{display:inline;fill:#333033;}
	.st17{fill:none;stroke:#000000;stroke-linejoin:bevel;stroke-miterlimit:10;}
	.st18{fill:none;stroke:#FFFFFF;stroke-linejoin:bevel;stroke-miterlimit:10;}
</style>
<g id="Twitter" class="st0">
	<path class="st7" d="M14,0v34h34V0H14z M38.8,13.7c0,0.1,0,0.3,0,0.5c0,4.6-3.5,9.9-9.9,9.9c-2,0-3.8-0.6-5.4-1.6
		c0.3,0,0.6,0,0.8,0c1.6,0,3.1-0.6,4.3-1.5c-1.5,0-2.8-1-3.3-2.4c0.2,0,0.4,0.1,0.7,0.1c0.3,0,0,0,0.3-0.1c-1.6-0.3-3.4-1.7-3.4-3.4
		v0c1,0.3,1.6,0.4,2.2,0.4c-0.9-0.6-1.3-1.7-1.3-2.9c0-0.6,0.3-1.2,0.6-1.8c1.7,2.1,4.4,3.5,7.3,3.7c-0.1-0.3-0.1-0.5-0.1-0.8
		c0-1.9,1.6-3.5,3.5-3.5c1,0,1.9,0.4,2.6,1.1c0.8-0.2,1.5-0.4,2.2-0.8c-0.3,0.8-0.8,1.5-1.5,1.9c0.7-0.1,1.4-0.3,2-0.6
		C40.1,12.6,39.5,13.2,38.8,13.7z"/>
</g>
<g id="FB">
	<path class="st6" d="M0,0v34h35V0H0z M21.7,14l-0.2,3H18v9h-3v-9h-2v-3h2v-1.2c0-0.8,0.3-1.9,0.9-2.6c0.6-0.8,1.5-1.3,2.9-1.3
		C21,8.9,22,9.2,22,9.2l-0.4,2.6c0,0-1.2-0.2-1.8-0.2c-0.7,0-1.7,0.2-1.7,0.9V14H21.7z"/>
</g>
<g id="LinkedIn" class="st0">
	<rect x="6.9" y="0" class="st11" width="34" height="34"/>
	<path class="st7" d="M19.1,24.1h-3.3V13.5h3.3V24.1z M17.4,12.2L17.4,12.2c-1.2,0-2-0.8-2-1.8c0-1,0.8-1.8,2-1.8c1.2,0,2,0.8,2,1.8
		C19.4,11.4,18.6,12.2,17.4,12.2z M32.4,24.1h-3.8v-5.5c0-1.4-0.6-2.4-1.9-2.4c-1,0-1.5,0.7-1.8,1.3c-0.1,0.2-0.1,0.5-0.1,0.9v5.7
		h-3.7c0,0,0-9.7,0-10.6h3.7v1.7c0.2-0.7,1.4-1.8,3.3-1.8c2.4,0,4.2,1.5,4.2,4.8V24.1z"/>
</g>
<g id="Instagram" class="st0">
	<rect x="6.9" y="0" class="st11" width="34" height="34"/>
	<g class="st3">
		<g>
			<path class="st6" d="M27.2,24.8h-6.7c-2.5,0-4.5-2-4.5-4.5v-6.7c0-2.5,2-4.5,4.5-4.5h6.7c2.5,0,4.5,2,4.5,4.5v6.7
				C31.7,22.8,29.7,24.8,27.2,24.8z M20.5,10.5c-1.7,0-3.1,1.4-3.1,3.1v6.7c0,1.7,1.4,3.1,3.1,3.1h6.7c1.7,0,3.1-1.4,3.1-3.1v-6.7
				c0-1.7-1.4-3.1-3.1-3.1H20.5z"/>
		</g>
		<g>
			<path class="st6" d="M23.9,21c-2.2,0-4-1.8-4-4c0-2.2,1.8-4,4-4c2.2,0,4,1.8,4,4C27.9,19.2,26.1,21,23.9,21z M23.9,14.3
				c-1.5,0-2.7,1.2-2.7,2.7c0,1.5,1.2,2.7,2.7,2.7c1.5,0,2.7-1.2,2.7-2.7C26.5,15.5,25.3,14.3,23.9,14.3z"/>
		</g>
		<g>
			<circle class="st6" cx="28.1" cy="12.8" r="1"/>
		</g>
	</g>
</g>
<g id="Layer_5" class="st0">
</g>
<g id="loading" class="st0">
</g>
</svg>
