<?xml version="1.0" encoding="utf-8"?>
<!-- Generator: Adobe Illustrator 19.1.0, SVG Export Plug-In . SVG Version: 6.00 Build 0)  -->
<svg version="1.1" xmlns="http://www.w3.org/2000/svg" xmlns:xlink="http://www.w3.org/1999/xlink" x="0px" y="0px"
	 viewBox="0 0 35 35" style="enable-background:new 0 0 35 35;" xml:space="preserve">
<style type="text/css">
	.st0{display:none;}
	.st1{display:inline;fill:none;stroke:#FFFFFF;stroke-miterlimit:10;}
	.st2{display:inline;fill:#FFFFFF;}
	.st3{display:inline;}
	.st4{fill:none;stroke:#000000;stroke-miterlimit:10;}
	.st5{fill:none;stroke:#1F1A3A;stroke-miterlimit:10;}
	.st6{fill:#1F1A3A;}
	.st7{display:inline;fill:#1F1A3A;}
	.st8{fill:none;stroke:#FFFFFF;stroke-miterlimit:10;}
	.st9{fill:#FFFFFF;}
	.st10{display:inline;fill:none;stroke:#000000;stroke-miterlimit:10;}
	.st11{display:inline;fill:none;stroke:#1F1A3A;stroke-miterlimit:10;}
	.st12{fill:none;stroke:#000000;stroke-width:2;stroke-miterlimit:10;}
	.st13{display:inline;fill:none;stroke:#FFFFFF;stroke-width:2;stroke-miterlimit:10;}
	.st14{display:inline;fill:none;stroke:#1F1A3A;stroke-width:2;stroke-miterlimit:10;}
	.st15{fill:#5D5D5D;}
	.st16{display:inline;fill:#333033;}
	.st17{fill:none;stroke:#000000;stroke-linejoin:bevel;stroke-miterlimit:10;}
	.st18{fill:none;stroke:#FFFFFF;stroke-linejoin:bevel;stroke-miterlimit:10;}
</style>
<g id="Twitter" class="st0">
	<g class="st3">
		<rect x="13" y="-0.5" class="st5" width="34" height="34"/>
		<path class="st6" d="M38.5,11.2c-0.6,0.3-1.3,0.5-2,0.6c0.7-0.4,1.3-1.1,1.5-1.9c-0.7,0.4-1.4,0.7-2.2,0.8
			c-0.6-0.7-1.5-1.1-2.6-1.1c-1.9,0-3.5,1.6-3.5,3.5c0,0.3,0,0.5,0.1,0.8c-2.9-0.1-5.5-1.5-7.2-3.7c-0.3,0.5-0.5,1.1-0.5,1.8
			c0,1.2,0.6,2.3,1.6,2.9c-0.6,0-1.1-0.2-1.6-0.4v0c0,1.7,1.2,3.1,2.8,3.4c-0.3,0.1-0.6,0.1-0.9,0.1c-0.2,0-0.4,0-0.7-0.1
			c0.4,1.4,1.7,2.4,3.3,2.4c-1.2,0.9-2.7,1.5-4.3,1.5c-0.3,0-0.6,0-0.8,0c1.5,1,3.4,1.6,5.4,1.6c6.4,0,9.9-5.3,9.9-9.9
			c0-0.2,0-0.3,0-0.5C37.5,12.5,38.1,11.9,38.5,11.2"/>
	</g>
	<path class="st7" d="M-26.8-0.7v34h34v-34H-26.8z M-2,13c0,0.1,0,0.3,0,0.5c0,4.6-3.5,9.9-9.9,9.9c-2,0-3.8-0.6-5.4-1.6
		c0.3,0,0.6,0,0.8,0c1.6,0,3.1-0.6,4.3-1.5c-1.5,0-2.8-1-3.3-2.4c0.2,0,0.4,0.1,0.7,0.1c0.3,0,0,0,0.3-0.1c-1.6-0.3-3.4-1.7-3.4-3.4
		v0c1,0.3,1.6,0.4,2.2,0.4c-0.9-0.6-1.3-1.7-1.3-2.9c0-0.6,0.3-1.2,0.6-1.8c1.7,2.1,4.4,3.5,7.3,3.7c-0.1-0.3-0.1-0.5-0.1-0.8
		c0-1.9,1.6-3.5,3.5-3.5c1,0,1.9,0.4,2.6,1.1c0.8-0.2,1.5-0.4,2.2-0.8c-0.3,0.8-0.8,1.5-1.5,1.9c0.7-0.1,1.4-0.3,2-0.6
		C-0.8,11.9-1.3,12.5-2,13z"/>
</g>
<g id="FB">
	<rect x="0.5" y="0.5" class="st5" width="34" height="34"/>
	<path class="st6" d="M13.4,14.6h1.8v-1.7c0-0.8,0-1.9,0.6-2.6C16.3,9.5,17.1,9,18.5,9c2.2,0,3.2,0.3,3.2,0.3l-0.4,2.6
		c0,0-0.7-0.2-1.4-0.2c-0.7,0-1.3,0.2-1.3,0.9v2h2.8l-0.2,2.5h-2.6V26h-3.3v-8.8h-1.8V14.6z"/>
</g>
<g id="LinkedIn" class="st0">
	<rect x="-34" y="-0.7" class="st11" width="34" height="34"/>
	<path class="st7" d="M4.2-0.7v34h34v-34H4.2z M17.2,23.3h-4v-11h4V23.3z M14.9,11.3L14.9,11.3c-1.2,0-2-1.1-2-2.1c0-1,0.8-2,2-2
		c1.2,0,2,1,2,2.1C17,10.3,16.2,11.3,14.9,11.3z M30.2,23.3h-4v-6.2c0-1.4-0.6-2.4-1.9-2.4c-1,0-1.7,0.7-1.9,1.3
		c-0.1,0.2-0.2,0.5-0.2,0.9v6.4h-3.5c0,0,0-10,0-11h3.5v1.4c0-0.7,1.7-1.8,3.6-1.8c2.4,0,4.4,1.5,4.4,4.8V23.3z"/>
</g>
<g id="Instagram" class="st0">
	<rect x="-34" y="-0.7" class="st11" width="34" height="34"/>
	<rect x="3.7" y="-0.7" class="st7" width="34" height="34"/>
</g>
<g id="Layer_5" class="st0">
</g>
<g id="loading" class="st0">
</g>
</svg>
