<?xml version="1.0" encoding="utf-8"?>
<!-- Generator: Adobe Illustrator 19.1.0, SVG Export Plug-In . SVG Version: 6.00 Build 0)  -->
<svg version="1.1" xmlns="http://www.w3.org/2000/svg" xmlns:xlink="http://www.w3.org/1999/xlink" x="0px" y="0px"
	 viewBox="0 0 59.1 59.1" style="enable-background:new 0 0 59.1 59.1;" xml:space="preserve">
<style type="text/css">
	.st0{display:none;}
	.st1{display:inline;fill:none;stroke:#FFFFFF;stroke-miterlimit:10;}
	.st2{display:inline;fill:#FFFFFF;}
	.st3{display:inline;}
	.st4{fill:none;stroke:#000000;stroke-miterlimit:10;}
	.st5{fill:none;stroke:#1F1A3A;stroke-miterlimit:10;}
	.st6{fill:#1F1A3A;}
	.st7{display:inline;fill:#1F1A3A;}
	.st8{display:inline;fill:none;stroke:#000000;stroke-miterlimit:10;}
	.st9{display:inline;fill:none;stroke:#1F1A3A;stroke-miterlimit:10;}
	.st10{fill:none;stroke:#FFFFFF;stroke-miterlimit:10;}
	.st11{fill:#FFFFFF;}
	.st12{fill:none;stroke:#000000;stroke-width:2;stroke-miterlimit:10;}
	.st13{fill:none;stroke:#FFFFFF;stroke-width:2;stroke-miterlimit:10;}
	.st14{fill:none;stroke:#1F1A3A;stroke-width:2;stroke-miterlimit:10;}
	.st15{fill:#5D5D5D;}
	.st16{fill:#333033;}
	.st17{fill:none;stroke:#000000;stroke-linejoin:bevel;stroke-miterlimit:10;}
	.st18{fill:none;stroke:#FFFFFF;stroke-linejoin:bevel;stroke-miterlimit:10;}
</style>
<g id="Twitter" class="st0">
</g>
<g id="FB" class="st0">
</g>
<g id="LinkedIn" class="st0">
</g>
<g id="Instagram">
	<rect x="1" y="1" class="st14" width="57.1" height="57.1"/>
	<g>
		<g>
			<path class="st6" d="M36.9,46.5H22.2c-5.3,0-9.7-4.3-9.7-9.7V22.2c0-5.3,4.3-9.7,9.7-9.7h14.6c5.3,0,9.7,4.3,9.7,9.7v14.6
				C46.5,42.2,42.2,46.5,36.9,46.5z M22.2,15.5c-3.7,0-6.8,3-6.8,6.8v14.6c0,3.7,3,6.8,6.8,6.8h14.6c3.7,0,6.8-3,6.8-6.8V22.2
				c0-3.7-3-6.8-6.8-6.8H22.2z"/>
		</g>
		<g>
			<path class="st6" d="M29.6,38.2c-4.8,0-8.7-3.9-8.7-8.7c0-4.8,3.9-8.7,8.7-8.7c4.8,0,8.7,3.9,8.7,8.7
				C38.2,34.3,34.3,38.2,29.6,38.2z M29.6,23.8c-3.2,0-5.8,2.6-5.8,5.8c0,3.2,2.6,5.8,5.8,5.8c3.2,0,5.8-2.6,5.8-5.8
				C35.3,26.4,32.7,23.8,29.6,23.8z"/>
		</g>
		<g>
			<circle class="st6" cx="38.6" cy="20.4" r="2.1"/>
		</g>
	</g>
</g>
<g id="Layer_5" class="st0">
	<rect x="12.5" y="29.8" class="st9" width="34" height="34"/>
	<g class="st3">
		<rect x="20.7" y="40.7" class="st5" width="17.6" height="12.1"/>
		<polyline class="st5" points="38.3,40.7 29.6,49.3 20.7,40.6 		"/>
		<line class="st5" x1="20.7" y1="52.8" x2="27" y2="46.6"/>
		<line class="st5" x1="38.3" y1="52.8" x2="32.1" y2="46.6"/>
	</g>
</g>
<g id="loading" class="st0">
</g>
</svg>
