<?xml version="1.0" encoding="utf-8"?>
<!-- Generator: Adobe Illustrator 19.1.0, SVG Export Plug-In . SVG Version: 6.00 Build 0)  -->
<svg version="1.1" xmlns="http://www.w3.org/2000/svg" xmlns:xlink="http://www.w3.org/1999/xlink" x="0px" y="0px"
	 viewBox="0 0 58 58" style="enable-background:new 0 0 58 58;" xml:space="preserve">
<style type="text/css">
	.st0{display:none;}
	.st1{display:inline;fill:none;stroke:#FFFFFF;stroke-miterlimit:10;}
	.st2{display:inline;fill:#FFFFFF;}
	.st3{display:inline;}
	.st4{fill:none;stroke:#000000;stroke-miterlimit:10;}
	.st5{fill:none;stroke:#1F1A3A;stroke-miterlimit:10;}
	.st6{fill:#1F1A3A;}
	.st7{display:inline;fill:#1F1A3A;}
	.st8{display:inline;fill:none;stroke:#000000;stroke-miterlimit:10;}
	.st9{display:inline;fill:none;stroke:#1F1A3A;stroke-miterlimit:10;}
	.st10{fill:none;stroke:#FFFFFF;stroke-miterlimit:10;}
	.st11{fill:#FFFFFF;}
	.st12{fill:none;stroke:#000000;stroke-width:2;stroke-miterlimit:10;}
	.st13{fill:none;stroke:#FFFFFF;stroke-width:2;stroke-miterlimit:10;}
	.st14{fill:none;stroke:#1F1A3A;stroke-width:2;stroke-miterlimit:10;}
	.st15{fill:#5D5D5D;}
	.st16{fill:#333033;}
	.st17{fill:none;stroke:#000000;stroke-linejoin:bevel;stroke-miterlimit:10;}
	.st18{fill:none;stroke:#FFFFFF;stroke-linejoin:bevel;stroke-miterlimit:10;}
</style>
<g id="Twitter" class="st0">
</g>
<g id="FB" class="st0">
</g>
<g id="LinkedIn" class="st0">
</g>
<g id="Instagram">
	<g>
		<path class="st6" d="M29,24.2c-2.9,0-5.2,2.3-5.2,5.2s2.3,5.2,5.2,5.2c2.9,0,5.2-2.3,5.2-5.2S31.8,24.2,29,24.2z"/>
		<path class="st6" d="M43,22.8c0-3.8-3-6.8-6.8-6.8H22.8C19,16,16,19,16,22.8v13.4c0,3.8,3,6.8,6.8,6.8h13.4c3.8,0,6.8-3,6.8-6.8
			V22.8z M29,37.5c-4.5,0-8.1-3.6-8.1-8.1c0-4.5,3.6-8.1,8.1-8.1c4.5,0,8.1,3.6,8.1,8.1C37.1,33.9,33.4,37.5,29,37.5z M37.6,22.7
			c-1.1,0-1.9-0.9-1.9-1.9c0-1.1,0.9-1.9,1.9-1.9s1.9,0.9,1.9,1.9C39.5,21.8,38.6,22.7,37.6,22.7z"/>
		<path class="st6" d="M0,0v58h58V0H0z M46,36.1c0,5.5-4.4,9.9-9.9,9.9H22.9c-5.5,0-9.9-4.4-9.9-9.9V22.9c0-5.5,4.4-9.9,9.9-9.9
			h13.2c5.5,0,9.9,4.4,9.9,9.9V36.1z"/>
	</g>
</g>
<g id="Layer_5" class="st0">
</g>
<g id="loading" class="st0">
</g>
</svg>
