<?xml version="1.0" encoding="utf-8"?>
<!-- Generator: Adobe Illustrator 19.1.0, SVG Export Plug-In . SVG Version: 6.00 Build 0)  -->
<svg version="1.1" xmlns="http://www.w3.org/2000/svg" xmlns:xlink="http://www.w3.org/1999/xlink" x="0px" y="0px"
	 viewBox="0 0 35 35" style="enable-background:new 0 0 35 35;" xml:space="preserve">
<style type="text/css">
	.st0{display:none;}
	.st1{display:inline;fill:none;stroke:#FFFFFF;stroke-miterlimit:10;}
	.st2{display:inline;fill:#FFFFFF;}
	.st3{display:inline;}
	.st4{fill:none;stroke:#000000;stroke-miterlimit:10;}
	.st5{fill:none;stroke:#1F1A3A;stroke-miterlimit:10;}
	.st6{fill:#1F1A3A;}
	.st7{display:inline;fill:#1F1A3A;}
	.st8{display:inline;fill:none;stroke:#000000;stroke-miterlimit:10;}
	.st9{display:inline;fill:none;stroke:#1F1A3A;stroke-miterlimit:10;}
	.st10{fill:none;stroke:#FFFFFF;stroke-miterlimit:10;}
	.st11{fill:#FFFFFF;}
	.st12{fill:none;stroke:#000000;stroke-width:2;stroke-miterlimit:10;}
	.st13{display:inline;fill:none;stroke:#FFFFFF;stroke-width:2;stroke-miterlimit:10;}
	.st14{display:inline;fill:none;stroke:#1F1A3A;stroke-width:2;stroke-miterlimit:10;}
	.st15{fill:#5D5D5D;}
	.st16{display:inline;fill:#333033;}
	.st17{fill:none;stroke:#000000;stroke-linejoin:bevel;stroke-miterlimit:10;}
	.st18{fill:none;stroke:#FFFFFF;stroke-linejoin:bevel;stroke-miterlimit:10;}
</style>
<g id="Twitter" class="st0">
	<path class="st7" d="M7.6,0.5v34h34v-34H7.6z M32.4,14.2c0,0.1,0,0.3,0,0.5c0,4.6-3.5,9.9-9.9,9.9c-2,0-3.8-0.6-5.4-1.6
		c0.3,0,0.6,0,0.8,0c1.6,0,3.1-0.6,4.3-1.5c-1.5,0-2.8-1-3.3-2.4c0.2,0,0.4,0.1,0.7,0.1c0.3,0,0,0,0.3-0.1c-1.6-0.3-3.4-1.7-3.4-3.4
		v0c1,0.3,1.6,0.4,2.2,0.4c-0.9-0.6-1.3-1.7-1.3-2.9c0-0.6,0.3-1.2,0.6-1.8c1.7,2.1,4.4,3.5,7.3,3.7c-0.1-0.3-0.1-0.5-0.1-0.8
		c0-1.9,1.6-3.5,3.5-3.5c1,0,1.9,0.4,2.6,1.1c0.8-0.2,1.5-0.4,2.2-0.8c-0.3,0.8-0.8,1.5-1.5,1.9c0.7-0.1,1.4-0.3,2-0.6
		C33.7,13.1,33.1,13.7,32.4,14.2z"/>
</g>
<g id="FB" class="st0">
	<rect x="35" y="1.7" class="st9" width="34" height="34"/>
	<path class="st7" d="M-6.4,0.5v34h35v-34H-6.4z M15.3,14.5l-0.2,3h-3.5v9h-3v-9h-2v-3h2v-1.2c0-0.8,0.3-1.9,0.9-2.6
		c0.6-0.8,1.5-1.3,2.9-1.3c2.2,0,3.2,0.3,3.2,0.3l-0.4,2.6c0,0-1.2-0.2-1.8-0.2c-0.7,0-1.7,0.2-1.7,0.9v1.5H15.3z"/>
</g>
<g id="LinkedIn">
	<rect x="0.5" y="0.5" class="st5" width="34" height="34"/>
	<path class="st6" d="M12.7,24.6H9.4V14h3.3V24.6z M11,12.7L11,12.7c-1.2,0-2-0.8-2-1.8C9,9.8,9.8,9,11,9c1.2,0,2,0.8,2,1.8
		C13,11.9,12.2,12.7,11,12.7z M26,24.6h-3.8v-5.5c0-1.4-0.6-2.4-1.9-2.4c-1,0-1.5,0.7-1.8,1.3c-0.1,0.2-0.1,0.5-0.1,0.9v5.7h-3.7
		c0,0,0-9.7,0-10.6h3.7v1.7c0.2-0.7,1.4-1.8,3.3-1.8c2.4,0,4.2,1.5,4.2,4.8V24.6z"/>
</g>
<g id="Instagram" class="st0">
	<rect x="0.5" y="0.5" class="st9" width="34" height="34"/>
	<g class="st3">
		<g>
			<path class="st6" d="M20.9,25.3h-6.7c-2.5,0-4.5-2-4.5-4.5v-6.7c0-2.5,2-4.5,4.5-4.5h6.7c2.5,0,4.5,2,4.5,4.5v6.7
				C25.3,23.3,23.3,25.3,20.9,25.3z M14.1,11c-1.7,0-3.1,1.4-3.1,3.1v6.7c0,1.7,1.4,3.1,3.1,3.1h6.7c1.7,0,3.1-1.4,3.1-3.1v-6.7
				c0-1.7-1.4-3.1-3.1-3.1H14.1z"/>
		</g>
		<g>
			<path class="st6" d="M17.5,21.5c-2.2,0-4-1.8-4-4c0-2.2,1.8-4,4-4c2.2,0,4,1.8,4,4C21.5,19.7,19.7,21.5,17.5,21.5z M17.5,14.8
				c-1.5,0-2.7,1.2-2.7,2.7c0,1.5,1.2,2.7,2.7,2.7c1.5,0,2.7-1.2,2.7-2.7C20.2,16,19,14.8,17.5,14.8z"/>
		</g>
		<g>
			<circle class="st6" cx="21.7" cy="13.3" r="1"/>
		</g>
	</g>
</g>
<g id="Layer_5" class="st0">
</g>
<g id="loading" class="st0">
</g>
</svg>
