<?xml version="1.0" encoding="utf-8"?>
<!-- Generator: Adobe Illustrator 19.1.0, SVG Export Plug-In . SVG Version: 6.00 Build 0)  -->
<svg version="1.1" xmlns="http://www.w3.org/2000/svg" xmlns:xlink="http://www.w3.org/1999/xlink" x="0px" y="0px"
	 viewBox="0 0 35 35" style="enable-background:new 0 0 35 35;" xml:space="preserve">
<style type="text/css">
	.st0{fill:none;stroke:#FFFFFF;stroke-miterlimit:10;}
	.st1{fill:#FFFFFF;}
	.st2{fill:none;stroke:#000000;stroke-miterlimit:10;}
	.st3{fill:none;stroke:#1F1A3A;stroke-miterlimit:10;}
	.st4{fill:#1F1A3A;}
	.st5{display:none;}
	.st6{display:inline;fill:none;stroke:#000000;stroke-miterlimit:10;}
	.st7{display:inline;}
	.st8{display:inline;fill:none;stroke:#FFFFFF;stroke-miterlimit:10;}
	.st9{display:inline;fill:#FFFFFF;}
	.st10{display:inline;fill:none;stroke:#1F1A3A;stroke-miterlimit:10;}
	.st11{display:inline;fill:#1F1A3A;}
	.st12{fill:none;stroke:#000000;stroke-width:2;stroke-miterlimit:10;}
	.st13{display:inline;fill:none;stroke:#FFFFFF;stroke-width:2;stroke-miterlimit:10;}
	.st14{display:inline;fill:none;stroke:#1F1A3A;stroke-width:2;stroke-miterlimit:10;}
	.st15{fill:#5D5D5D;}
	.st16{display:inline;fill:#333033;}
	.st17{fill:none;stroke:#000000;stroke-linejoin:bevel;stroke-miterlimit:10;}
	.st18{fill:none;stroke:#FFFFFF;stroke-linejoin:bevel;stroke-miterlimit:10;}
</style>
<g id="Twitter">
	<g>
		<rect x="0.5" y="0.5" class="st3" width="34" height="34"/>
		<path class="st4" d="M26,12.2c-0.6,0.3-1.3,0.5-2,0.6c0.7-0.4,1.3-1.1,1.5-1.9c-0.7,0.4-1.4,0.7-2.2,0.8c-0.6-0.7-1.5-1.1-2.6-1.1
			c-1.9,0-3.5,1.6-3.5,3.5c0,0.3,0,0.5,0.1,0.8c-2.9-0.1-5.5-1.5-7.2-3.7c-0.3,0.5-0.5,1.1-0.5,1.8c0,1.2,0.6,2.3,1.6,2.9
			c-0.6,0-1.1-0.2-1.6-0.4v0c0,1.7,1.2,3.1,2.8,3.4c-0.3,0.1-0.6,0.1-0.9,0.1c-0.2,0-0.4,0-0.7-0.1c0.4,1.4,1.7,2.4,3.3,2.4
			c-1.2,0.9-2.7,1.5-4.3,1.5c-0.3,0-0.6,0-0.8,0c1.5,1,3.4,1.6,5.4,1.6c6.4,0,9.9-5.3,9.9-9.9c0-0.2,0-0.3,0-0.5
			C25,13.5,25.6,12.9,26,12.2"/>
	</g>
</g>
<g id="FB" class="st5">
	<rect x="-12" y="1.5" class="st10" width="34" height="34"/>
	<path class="st11" d="M0.9,15.6h1.8v-1.7c0-0.8,0-1.9,0.6-2.6C3.8,10.5,4.6,10,6,10c2.2,0,3.2,0.3,3.2,0.3l-0.4,2.6
		c0,0-0.7-0.2-1.4-0.2C6.6,12.7,6,13,6,13.6v2h2.8l-0.2,2.5H6V27H2.7v-8.8H0.9V15.6z"/>
</g>
<g id="LinkedIn" class="st5">
	<path class="st11" d="M-8.3,0.3v34h34v-34H-8.3z M4.7,24.3h-4v-11h4V24.3z M2.4,12.3L2.4,12.3c-1.2,0-2-1.1-2-2.1c0-1,0.8-2,2-2
		c1.2,0,2,1,2,2.1C4.5,11.3,3.7,12.3,2.4,12.3z M17.7,24.3h-4v-6.2c0-1.4-0.6-2.4-1.9-2.4c-1,0-1.7,0.7-1.9,1.3
		c-0.1,0.2-0.2,0.5-0.2,0.9v6.4H6.2c0,0,0-10,0-11h3.5v1.4c0-0.7,1.7-1.8,3.6-1.8c2.4,0,4.4,1.5,4.4,4.8V24.3z"/>
</g>
<g id="Instagram" class="st5">
	<rect x="-8.8" y="0.3" class="st11" width="34" height="34"/>
</g>
<g id="Layer_5" class="st5">
</g>
<g id="loading" class="st5">
</g>
</svg>
