<?xml version="1.0" encoding="utf-8"?>
<!-- Generator: Adobe Illustrator 19.1.0, SVG Export Plug-In . SVG Version: 6.00 Build 0)  -->
<svg version="1.1" xmlns="http://www.w3.org/2000/svg" xmlns:xlink="http://www.w3.org/1999/xlink" x="0px" y="0px"
	 viewBox="0 0 34 34" style="enable-background:new 0 0 34 34;" xml:space="preserve">
<style type="text/css">
	.st0{fill:none;stroke:#FFFFFF;stroke-miterlimit:10;}
	.st1{fill:#FFFFFF;}
	.st2{fill:none;stroke:#000000;stroke-miterlimit:10;}
	.st3{fill:none;stroke:#1F1A3A;stroke-miterlimit:10;}
	.st4{fill:#1F1A3A;}
	.st5{display:none;}
	.st6{display:inline;fill:none;stroke:#000000;stroke-miterlimit:10;}
	.st7{display:inline;}
	.st8{display:inline;fill:none;stroke:#FFFFFF;stroke-miterlimit:10;}
	.st9{display:inline;fill:#FFFFFF;}
	.st10{display:inline;fill:none;stroke:#1F1A3A;stroke-miterlimit:10;}
	.st11{display:inline;fill:#1F1A3A;}
	.st12{fill:none;stroke:#000000;stroke-width:2;stroke-miterlimit:10;}
	.st13{display:inline;fill:none;stroke:#FFFFFF;stroke-width:2;stroke-miterlimit:10;}
	.st14{display:inline;fill:none;stroke:#1F1A3A;stroke-width:2;stroke-miterlimit:10;}
	.st15{fill:#5D5D5D;}
	.st16{display:inline;fill:#333033;}
	.st17{fill:none;stroke:#000000;stroke-linejoin:bevel;stroke-miterlimit:10;}
	.st18{fill:none;stroke:#FFFFFF;stroke-linejoin:bevel;stroke-miterlimit:10;}
</style>
<g id="Twitter">
	<path class="st4" d="M0,0v34h34V0H0z M24.8,13.7c0,0.1,0,0.3,0,0.5c0,4.6-3.5,9.9-9.9,9.9c-2,0-3.8-0.6-5.4-1.6c0.3,0,0.6,0,0.8,0
		c1.6,0,3.1-0.6,4.3-1.5c-1.5,0-2.8-1-3.3-2.4c0.2,0,0.4,0.1,0.7,0.1c0.3,0,0,0,0.3-0.1C10.8,18.3,9,16.8,9,15.2v0
		c1,0.3,1.6,0.4,2.2,0.4c-0.9-0.6-1.3-1.7-1.3-2.9c0-0.6,0.3-1.2,0.6-1.8c1.7,2.1,4.4,3.5,7.3,3.7c-0.1-0.3-0.1-0.5-0.1-0.8
		c0-1.9,1.6-3.5,3.5-3.5c1,0,1.9,0.4,2.6,1.1c0.8-0.2,1.5-0.4,2.2-0.8c-0.3,0.8-0.8,1.5-1.5,1.9c0.7-0.1,1.4-0.3,2-0.6
		C26.1,12.6,25.5,13.2,24.8,13.7z"/>
</g>
<g id="FB" class="st5">
	<rect x="27.3" y="1.2" class="st10" width="34" height="34"/>
	<path class="st11" d="M-14,0v34h35V0H-14z M7.7,14l-0.2,3H4v9H1v-9h-2v-3h2v-1.2c0-0.8,0.3-1.9,0.9-2.6c0.6-0.8,1.5-1.3,2.9-1.3
		C7,8.9,8,9.2,8,9.2l-0.4,2.6c0,0-1.2-0.2-1.8-0.2C5,11.6,4,11.9,4,12.5V14H7.7z"/>
</g>
<g id="LinkedIn" class="st5">
	<rect x="-7.1" y="0" class="st10" width="34" height="34"/>
	<path class="st11" d="M5.1,24.1H1.8V13.5h3.3V24.1z M3.4,12.2L3.4,12.2c-1.2,0-2-0.8-2-1.8c0-1,0.8-1.8,2-1.8c1.2,0,2,0.8,2,1.8
		C5.4,11.4,4.6,12.2,3.4,12.2z M18.4,24.1h-3.8v-5.5c0-1.4-0.6-2.4-1.9-2.4c-1,0-1.5,0.7-1.8,1.3c-0.1,0.2-0.1,0.5-0.1,0.9v5.7H7.1
		c0,0,0-9.7,0-10.6h3.7v1.7c0.2-0.7,1.4-1.8,3.3-1.8c2.4,0,4.2,1.5,4.2,4.8V24.1z"/>
	<path class="st11" d="M31,0v34h34V0H31z M44,24h-4V13h4V24z M41.8,12L41.8,12c-1.2,0-2-1.1-2-2.1c0-1,0.8-2,2-2c1.2,0,2,1,2,2.1
		C43.8,11,43,12,41.8,12z M57,24h-4v-6.2c0-1.4-0.6-2.4-1.9-2.4c-1,0-1.7,0.7-1.9,1.3c-0.1,0.2-0.2,0.5-0.2,0.9V24h-3.5
		c0,0,0-10,0-11H49v1.4c0-0.7,1.7-1.8,3.6-1.8c2.4,0,4.4,1.5,4.4,4.8V24z"/>
</g>
<g id="Instagram" class="st5">
	<rect x="-7.1" y="0" class="st10" width="34" height="34"/>
	<rect x="30.5" y="0" class="st11" width="34" height="34"/>
	<g class="st7">
		<g>
			<path class="st4" d="M13.2,24.8H6.5c-2.5,0-4.5-2-4.5-4.5v-6.7c0-2.5,2-4.5,4.5-4.5h6.7c2.5,0,4.5,2,4.5,4.5v6.7
				C17.7,22.8,15.7,24.8,13.2,24.8z M6.5,10.5c-1.7,0-3.1,1.4-3.1,3.1v6.7c0,1.7,1.4,3.1,3.1,3.1h6.7c1.7,0,3.1-1.4,3.1-3.1v-6.7
				c0-1.7-1.4-3.1-3.1-3.1H6.5z"/>
		</g>
		<g>
			<path class="st4" d="M9.9,21c-2.2,0-4-1.8-4-4c0-2.2,1.8-4,4-4c2.2,0,4,1.8,4,4C13.9,19.2,12.1,21,9.9,21z M9.9,14.3
				c-1.5,0-2.7,1.2-2.7,2.7c0,1.5,1.2,2.7,2.7,2.7c1.5,0,2.7-1.2,2.7-2.7C12.5,15.5,11.3,14.3,9.9,14.3z"/>
		</g>
		<g>
			<circle class="st4" cx="14.1" cy="12.8" r="1"/>
		</g>
	</g>
</g>
<g id="Layer_5" class="st5">
</g>
<g id="loading" class="st5">
</g>
</svg>
